<mxfile host="app.diagrams.net" modified="2020-09-29T09:08:17.928Z" agent="5.0 (Windows NT 10.0; Win64; x64) AppleWebKit/537.36 (KHTML, like Gecko) Chrome/85.0.4183.121 Safari/537.36" etag="swkOT-wmuD8z2GlEVRXF" version="13.7.6" type="github">
  <diagram id="R2lEEEUBdFMjLlhIrx00" name="Page-1">
    <mxGraphModel dx="868" dy="482" grid="0" gridSize="10" guides="1" tooltips="1" connect="1" arrows="1" fold="1" page="1" pageScale="1" pageWidth="1100" pageHeight="850" background="#ffffff" math="0" shadow="0" extFonts="Permanent Marker^https://fonts.googleapis.com/css?family=Permanent+Marker">
      <root>
        <mxCell id="0" />
        <mxCell id="1" parent="0" />
        <mxCell id="P7dIqjpxAPYmWHlrAVXB-15" value="InvitÃ©" style="swimlane;fontStyle=1;align=center;verticalAlign=top;childLayout=stackLayout;horizontal=1;startSize=26;horizontalStack=0;resizeParent=1;resizeParentMax=0;resizeLast=0;collapsible=1;marginBottom=0;" parent="1" vertex="1">
          <mxGeometry x="60" y="50" width="160" height="90" as="geometry" />
        </mxCell>
        <mxCell id="P7dIqjpxAPYmWHlrAVXB-17" value="" style="line;strokeWidth=1;fillColor=none;align=left;verticalAlign=middle;spacingTop=-1;spacingLeft=3;spacingRight=3;rotatable=0;labelPosition=right;points=[];portConstraint=eastwest;" parent="P7dIqjpxAPYmWHlrAVXB-15" vertex="1">
          <mxGeometry y="26" width="160" height="8" as="geometry" />
        </mxCell>
        <mxCell id="P7dIqjpxAPYmWHlrAVXB-18" value="+ Connexion()&#xa;+ Creer_compte()&#xa;+ Quitter()" style="text;strokeColor=none;fillColor=none;align=left;verticalAlign=top;spacingLeft=4;spacingRight=4;overflow=hidden;rotatable=0;points=[[0,0.5],[1,0.5]];portConstraint=eastwest;" parent="P7dIqjpxAPYmWHlrAVXB-15" vertex="1">
          <mxGeometry y="34" width="160" height="56" as="geometry" />
        </mxCell>
        <mxCell id="P7dIqjpxAPYmWHlrAVXB-32" style="edgeStyle=orthogonalEdgeStyle;rounded=0;orthogonalLoop=1;jettySize=auto;html=1;" parent="1" source="P7dIqjpxAPYmWHlrAVXB-28" edge="1">
          <mxGeometry relative="1" as="geometry">
            <mxPoint x="140" y="140" as="targetPoint" />
          </mxGeometry>
        </mxCell>
        <mxCell id="P7dIqjpxAPYmWHlrAVXB-28" value="Joueur" style="swimlane;fontStyle=1;align=center;verticalAlign=top;childLayout=stackLayout;horizontal=1;startSize=26;horizontalStack=0;resizeParent=1;resizeParentMax=0;resizeLast=0;collapsible=1;marginBottom=0;" parent="1" vertex="1">
          <mxGeometry x="60" y="210" width="160" height="80" as="geometry" />
        </mxCell>
        <mxCell id="P7dIqjpxAPYmWHlrAVXB-29" value="+ id: str&#xa;+ mdp : str&#xa;+ score : int" style="text;strokeColor=none;fillColor=none;align=left;verticalAlign=top;spacingLeft=4;spacingRight=4;overflow=hidden;rotatable=0;points=[[0,0.5],[1,0.5]];portConstraint=eastwest;" parent="P7dIqjpxAPYmWHlrAVXB-28" vertex="1">
          <mxGeometry y="26" width="160" height="44" as="geometry" />
        </mxCell>
        <mxCell id="P7dIqjpxAPYmWHlrAVXB-30" value="" style="line;strokeWidth=1;fillColor=none;align=left;verticalAlign=middle;spacingTop=-1;spacingLeft=3;spacingRight=3;rotatable=0;labelPosition=right;points=[];portConstraint=eastwest;" parent="P7dIqjpxAPYmWHlrAVXB-28" vertex="1">
          <mxGeometry y="70" width="160" height="10" as="geometry" />
        </mxCell>
        <mxCell id="P7dIqjpxAPYmWHlrAVXB-33" value="1" style="text;html=1;align=center;verticalAlign=middle;resizable=0;points=[];autosize=1;" parent="1" vertex="1">
          <mxGeometry x="140" y="140" width="20" height="20" as="geometry" />
        </mxCell>
        <mxCell id="P7dIqjpxAPYmWHlrAVXB-34" value="1" style="text;html=1;align=center;verticalAlign=middle;resizable=0;points=[];autosize=1;" parent="1" vertex="1">
          <mxGeometry x="120" y="190" width="20" height="20" as="geometry" />
        </mxCell>
        <mxCell id="P7dIqjpxAPYmWHlrAVXB-35" value="Partie de cartes" style="swimlane;fontStyle=1;align=center;verticalAlign=top;childLayout=stackLayout;horizontal=1;startSize=26;horizontalStack=0;resizeParent=1;resizeParentMax=0;resizeLast=0;collapsible=1;marginBottom=0;" parent="1" vertex="1">
          <mxGeometry x="320" y="54" width="160" height="180" as="geometry" />
        </mxCell>
        <mxCell id="P7dIqjpxAPYmWHlrAVXB-36" value="+ nom&#xa;+nombre_joueur&#xa;+" style="text;strokeColor=none;fillColor=none;align=left;verticalAlign=top;spacingLeft=4;spacingRight=4;overflow=hidden;rotatable=0;points=[[0,0.5],[1,0.5]];portConstraint=eastwest;" parent="P7dIqjpxAPYmWHlrAVXB-35" vertex="1">
          <mxGeometry y="26" width="160" height="64" as="geometry" />
        </mxCell>
        <mxCell id="P7dIqjpxAPYmWHlrAVXB-37" value="" style="line;strokeWidth=1;fillColor=none;align=left;verticalAlign=middle;spacingTop=-1;spacingLeft=3;spacingRight=3;rotatable=0;labelPosition=right;points=[];portConstraint=eastwest;" parent="P7dIqjpxAPYmWHlrAVXB-35" vertex="1">
          <mxGeometry y="90" width="160" height="8" as="geometry" />
        </mxCell>
        <mxCell id="P7dIqjpxAPYmWHlrAVXB-38" value="+ sauvegarde&#xa;+tirage de carte&#xa;+pose de carte&#xa;+passage de tour" style="text;strokeColor=none;fillColor=none;align=left;verticalAlign=top;spacingLeft=4;spacingRight=4;overflow=hidden;rotatable=0;points=[[0,0.5],[1,0.5]];portConstraint=eastwest;" parent="P7dIqjpxAPYmWHlrAVXB-35" vertex="1">
          <mxGeometry y="98" width="160" height="82" as="geometry" />
        </mxCell>
        <mxCell id="JlB8DHOgMjPLUpHq4oXz-5" value="Regles" style="swimlane;fontStyle=0;childLayout=stackLayout;horizontal=1;startSize=26;fillColor=none;horizontalStack=0;resizeParent=1;resizeParentMax=0;resizeLast=0;collapsible=1;marginBottom=0;" parent="1" vertex="1">
          <mxGeometry x="630" y="50" width="180" height="134" as="geometry" />
        </mxCell>
        <mxCell id="JlB8DHOgMjPLUpHq4oXz-6" value="+ nom du jeu" style="text;strokeColor=none;fillColor=none;align=left;verticalAlign=top;spacingLeft=4;spacingRight=4;overflow=hidden;rotatable=0;points=[[0,0.5],[1,0.5]];portConstraint=eastwest;" parent="JlB8DHOgMjPLUpHq4oXz-5" vertex="1">
          <mxGeometry y="26" width="180" height="26" as="geometry" />
        </mxCell>
        <mxCell id="JlB8DHOgMjPLUpHq4oXz-7" value="+ valeur des cartes (custom)" style="text;strokeColor=none;fillColor=none;align=left;verticalAlign=top;spacingLeft=4;spacingRight=4;overflow=hidden;rotatable=0;points=[[0,0.5],[1,0.5]];portConstraint=eastwest;" parent="JlB8DHOgMjPLUpHq4oXz-5" vertex="1">
          <mxGeometry y="52" width="180" height="26" as="geometry" />
        </mxCell>
        <mxCell id="JlB8DHOgMjPLUpHq4oXz-8" value="+ contrainte de tour" style="text;strokeColor=none;fillColor=none;align=left;verticalAlign=top;spacingLeft=4;spacingRight=4;overflow=hidden;rotatable=0;points=[[0,0.5],[1,0.5]];portConstraint=eastwest;" parent="JlB8DHOgMjPLUpHq4oXz-5" vertex="1">
          <mxGeometry y="78" width="180" height="26" as="geometry" />
        </mxCell>
        <mxCell id="JlB8DHOgMjPLUpHq4oXz-24" value="&lt;span style=&quot;color: rgb(0 , 0 , 0) ; font-family: &amp;#34;helvetica&amp;#34; ; font-size: 12px ; font-style: normal ; font-weight: 400 ; letter-spacing: normal ; text-align: left ; text-indent: 0px ; text-transform: none ; word-spacing: 0px ; background-color: rgb(248 , 249 , 250) ; display: inline ; float: none&quot;&gt;+ contrainte de partie&lt;/span&gt;" style="text;whiteSpace=wrap;html=1;" parent="JlB8DHOgMjPLUpHq4oXz-5" vertex="1">
          <mxGeometry y="104" width="180" height="30" as="geometry" />
        </mxCell>
        <mxCell id="JlB8DHOgMjPLUpHq4oXz-21" value="" style="endArrow=diamondThin;endFill=1;endSize=24;html=1;exitX=0.5;exitY=0;exitDx=0;exitDy=0;" parent="1" source="JlB8DHOgMjPLUpHq4oXz-13" target="JlB8DHOgMjPLUpHq4oXz-10" edge="1">
          <mxGeometry width="160" relative="1" as="geometry">
            <mxPoint x="470" y="430" as="sourcePoint" />
            <mxPoint x="630" y="430" as="targetPoint" />
          </mxGeometry>
        </mxCell>
        <mxCell id="JlB8DHOgMjPLUpHq4oXz-26" style="edgeStyle=orthogonalEdgeStyle;rounded=0;orthogonalLoop=1;jettySize=auto;html=1;exitX=0;exitY=0.5;exitDx=0;exitDy=0;entryX=1;entryY=0.5;entryDx=0;entryDy=0;" parent="1" source="JlB8DHOgMjPLUpHq4oXz-7" target="P7dIqjpxAPYmWHlrAVXB-36" edge="1">
          <mxGeometry relative="1" as="geometry">
            <Array as="points">
              <mxPoint x="550" y="115" />
              <mxPoint x="550" y="112" />
            </Array>
          </mxGeometry>
        </mxCell>
        <mxCell id="JlB8DHOgMjPLUpHq4oXz-30" value="" style="endArrow=none;html=1;entryX=0.006;entryY=-0.016;entryDx=0;entryDy=0;entryPerimeter=0;" parent="1" target="P7dIqjpxAPYmWHlrAVXB-38" edge="1">
          <mxGeometry width="50" height="50" relative="1" as="geometry">
            <mxPoint x="220" y="214" as="sourcePoint" />
            <mxPoint x="270" y="164" as="targetPoint" />
          </mxGeometry>
        </mxCell>
        <mxCell id="JlB8DHOgMjPLUpHq4oXz-31" value="Joue" style="text;html=1;strokeColor=none;fillColor=none;align=center;verticalAlign=middle;whiteSpace=wrap;rounded=0;" parent="1" vertex="1">
          <mxGeometry x="240" y="170" width="40" height="20" as="geometry" />
        </mxCell>
        <mxCell id="JlB8DHOgMjPLUpHq4oXz-35" style="edgeStyle=orthogonalEdgeStyle;rounded=0;orthogonalLoop=1;jettySize=auto;html=1;exitX=0.5;exitY=0;exitDx=0;exitDy=0;entryX=0.463;entryY=1.012;entryDx=0;entryDy=0;entryPerimeter=0;" parent="1" source="JlB8DHOgMjPLUpHq4oXz-9" target="P7dIqjpxAPYmWHlrAVXB-38" edge="1">
          <mxGeometry relative="1" as="geometry" />
        </mxCell>
        <mxCell id="JlB8DHOgMjPLUpHq4oXz-9" value="Tas de carte" style="swimlane;fontStyle=0;childLayout=stackLayout;horizontal=1;startSize=26;fillColor=none;horizontalStack=0;resizeParent=1;resizeParentMax=0;resizeLast=0;collapsible=1;marginBottom=0;" parent="1" vertex="1">
          <mxGeometry x="320" y="310" width="160" height="80" as="geometry" />
        </mxCell>
        <mxCell id="JlB8DHOgMjPLUpHq4oXz-10" value="+nombre_carte" style="text;strokeColor=none;fillColor=none;align=left;verticalAlign=top;spacingLeft=4;spacingRight=4;overflow=hidden;rotatable=0;points=[[0,0.5],[1,0.5]];portConstraint=eastwest;" parent="JlB8DHOgMjPLUpHq4oXz-9" vertex="1">
          <mxGeometry y="26" width="160" height="54" as="geometry" />
        </mxCell>
        <mxCell id="JlB8DHOgMjPLUpHq4oXz-13" value="Cartes" style="swimlane;fontStyle=0;childLayout=stackLayout;horizontal=1;startSize=26;fillColor=none;horizontalStack=0;resizeParent=1;resizeParentMax=0;resizeLast=0;collapsible=1;marginBottom=0;" parent="1" vertex="1">
          <mxGeometry x="320" y="460" width="160" height="80" as="geometry" />
        </mxCell>
        <mxCell id="JlB8DHOgMjPLUpHq4oXz-14" value="+valeur" style="text;strokeColor=none;fillColor=none;align=left;verticalAlign=top;spacingLeft=4;spacingRight=4;overflow=hidden;rotatable=0;points=[[0,0.5],[1,0.5]];portConstraint=eastwest;" parent="JlB8DHOgMjPLUpHq4oXz-13" vertex="1">
          <mxGeometry y="26" width="160" height="26" as="geometry" />
        </mxCell>
        <mxCell id="JlB8DHOgMjPLUpHq4oXz-15" value="+couleur" style="text;strokeColor=none;fillColor=none;align=left;verticalAlign=top;spacingLeft=4;spacingRight=4;overflow=hidden;rotatable=0;points=[[0,0.5],[1,0.5]];portConstraint=eastwest;" parent="JlB8DHOgMjPLUpHq4oXz-13" vertex="1">
          <mxGeometry y="52" width="160" height="28" as="geometry" />
        </mxCell>
        <mxCell id="JlB8DHOgMjPLUpHq4oXz-36" value="" style="endArrow=none;html=1;exitX=1;exitY=0.5;exitDx=0;exitDy=0;" parent="1" source="P7dIqjpxAPYmWHlrAVXB-18" target="P7dIqjpxAPYmWHlrAVXB-36" edge="1">
          <mxGeometry width="50" height="50" relative="1" as="geometry">
            <mxPoint x="520" y="450" as="sourcePoint" />
            <mxPoint x="570" y="400" as="targetPoint" />
          </mxGeometry>
        </mxCell>
        <mxCell id="VAHf5R7y1Ry_OR95GSxl-1" value="Loop" style="shape=umlFrame;whiteSpace=wrap;html=1;width=110;height=30;" vertex="1" parent="1">
          <mxGeometry x="166" y="470" width="915" height="560" as="geometry" />
        </mxCell>
        <mxCell id="VAHf5R7y1Ry_OR95GSxl-2" value="Loop" style="shape=umlFrame;whiteSpace=wrap;html=1;width=110;height=30;" vertex="1" parent="1">
          <mxGeometry x="186" y="520" width="861" height="240" as="geometry" />
        </mxCell>
        <mxCell id="VAHf5R7y1Ry_OR95GSxl-3" value="opt" style="shape=umlFrame;whiteSpace=wrap;html=1;" vertex="1" parent="1">
          <mxGeometry x="426" y="630" width="340" height="70" as="geometry" />
        </mxCell>
        <mxCell id="VAHf5R7y1Ry_OR95GSxl-4" value=":Joueur" style="shape=umlLifeline;perimeter=lifelinePerimeter;container=1;collapsible=0;recursiveResize=0;rounded=0;shadow=0;strokeWidth=1;" vertex="1" parent="1">
          <mxGeometry x="266" y="420" width="100" height="660" as="geometry" />
        </mxCell>
        <mxCell id="VAHf5R7y1Ry_OR95GSxl-5" value=":SystÃ¨me (applicationÂ &#xa;mÃ©tier)" style="shape=umlLifeline;perimeter=lifelinePerimeter;container=1;collapsible=0;recursiveResize=0;rounded=0;shadow=0;strokeWidth=1;" vertex="1" parent="1">
          <mxGeometry x="463" y="420" width="122" height="760" as="geometry" />
        </mxCell>
        <mxCell id="VAHf5R7y1Ry_OR95GSxl-6" value="" style="points=[];perimeter=orthogonalPerimeter;rounded=0;shadow=0;strokeWidth=1;" vertex="1" parent="VAHf5R7y1Ry_OR95GSxl-5">
          <mxGeometry x="56" y="114" width="10" height="200" as="geometry" />
        </mxCell>
        <mxCell id="VAHf5R7y1Ry_OR95GSxl-7" value="" style="html=1;points=[];perimeter=orthogonalPerimeter;" vertex="1" parent="VAHf5R7y1Ry_OR95GSxl-5">
          <mxGeometry x="56" y="390" width="10" height="80" as="geometry" />
        </mxCell>
        <mxCell id="VAHf5R7y1Ry_OR95GSxl-8" value="" style="html=1;points=[];perimeter=orthogonalPerimeter;" vertex="1" parent="VAHf5R7y1Ry_OR95GSxl-5">
          <mxGeometry x="56" y="500" width="10" height="80" as="geometry" />
        </mxCell>
        <mxCell id="VAHf5R7y1Ry_OR95GSxl-9" value="return" style="verticalAlign=bottom;endArrow=open;dashed=1;endSize=8;exitX=0;exitY=0.95;shadow=0;strokeWidth=1;" edge="1" parent="1" source="VAHf5R7y1Ry_OR95GSxl-6">
          <mxGeometry relative="1" as="geometry">
            <mxPoint x="315" y="724" as="targetPoint" />
          </mxGeometry>
        </mxCell>
        <mxCell id="VAHf5R7y1Ry_OR95GSxl-10" value="Poser_Carte()" style="verticalAlign=bottom;endArrow=block;entryX=0;entryY=0;shadow=0;strokeWidth=1;exitX=0.502;exitY=0.171;exitDx=0;exitDy=0;exitPerimeter=0;" edge="1" parent="1" source="VAHf5R7y1Ry_OR95GSxl-4" target="VAHf5R7y1Ry_OR95GSxl-6">
          <mxGeometry relative="1" as="geometry">
            <mxPoint x="321" y="540.0000000000003" as="sourcePoint" />
          </mxGeometry>
        </mxCell>
        <mxCell id="VAHf5R7y1Ry_OR95GSxl-11" value=":Jeu (interface)" style="shape=umlLifeline;perimeter=lifelinePerimeter;container=1;collapsible=0;recursiveResize=0;rounded=0;shadow=0;strokeWidth=1;" vertex="1" parent="1">
          <mxGeometry x="689" y="420" width="123" height="760" as="geometry" />
        </mxCell>
        <mxCell id="VAHf5R7y1Ry_OR95GSxl-12" value="" style="points=[];perimeter=orthogonalPerimeter;rounded=0;shadow=0;strokeWidth=1;" vertex="1" parent="VAHf5R7y1Ry_OR95GSxl-11">
          <mxGeometry x="56.5" y="229" width="10" height="40" as="geometry" />
        </mxCell>
        <mxCell id="VAHf5R7y1Ry_OR95GSxl-13" value="" style="points=[];perimeter=orthogonalPerimeter;rounded=0;shadow=0;strokeWidth=1;" vertex="1" parent="VAHf5R7y1Ry_OR95GSxl-11">
          <mxGeometry x="45" y="520" width="10" height="40" as="geometry" />
        </mxCell>
        <mxCell id="VAHf5R7y1Ry_OR95GSxl-14" value="Joueur_Suivant()" style="verticalAlign=bottom;endArrow=block;shadow=0;strokeWidth=1;entryX=0.1;entryY=0;entryDx=0;entryDy=0;entryPerimeter=0;" edge="1" parent="VAHf5R7y1Ry_OR95GSxl-11" target="VAHf5R7y1Ry_OR95GSxl-13">
          <mxGeometry relative="1" as="geometry">
            <mxPoint x="-162" y="520" as="sourcePoint" />
            <mxPoint x="40" y="520" as="targetPoint" />
          </mxGeometry>
        </mxCell>
        <mxCell id="VAHf5R7y1Ry_OR95GSxl-15" value="return" style="verticalAlign=bottom;endArrow=open;dashed=1;endSize=8;exitX=0.1;exitY=0.975;shadow=0;strokeWidth=1;exitDx=0;exitDy=0;exitPerimeter=0;" edge="1" parent="VAHf5R7y1Ry_OR95GSxl-11" source="VAHf5R7y1Ry_OR95GSxl-13">
          <mxGeometry relative="1" as="geometry">
            <mxPoint x="-170" y="559" as="targetPoint" />
            <mxPoint y="550" as="sourcePoint" />
          </mxGeometry>
        </mxCell>
        <mxCell id="VAHf5R7y1Ry_OR95GSxl-16" value="" style="html=1;points=[];perimeter=orthogonalPerimeter;" vertex="1" parent="VAHf5R7y1Ry_OR95GSxl-11">
          <mxGeometry x="45" y="650" width="10" height="80" as="geometry" />
        </mxCell>
        <mxCell id="VAHf5R7y1Ry_OR95GSxl-17" value="Plis_add(carte)" style="verticalAlign=bottom;endArrow=block;shadow=0;strokeWidth=1;entryX=0.1;entryY=0;entryDx=0;entryDy=0;entryPerimeter=0;" edge="1" parent="1" target="VAHf5R7y1Ry_OR95GSxl-12">
          <mxGeometry relative="1" as="geometry">
            <mxPoint x="531" y="649" as="sourcePoint" />
            <mxPoint x="736" y="650" as="targetPoint" />
          </mxGeometry>
        </mxCell>
        <mxCell id="VAHf5R7y1Ry_OR95GSxl-18" value="return" style="verticalAlign=bottom;endArrow=open;dashed=1;endSize=8;exitX=0.1;exitY=0.975;shadow=0;strokeWidth=1;exitDx=0;exitDy=0;exitPerimeter=0;" edge="1" parent="1" source="VAHf5R7y1Ry_OR95GSxl-12">
          <mxGeometry relative="1" as="geometry">
            <mxPoint x="529" y="688" as="targetPoint" />
            <mxPoint x="696" y="680" as="sourcePoint" />
          </mxGeometry>
        </mxCell>
        <mxCell id="VAHf5R7y1Ry_OR95GSxl-19" value="ref" style="shape=umlFrame;whiteSpace=wrap;html=1;" vertex="1" parent="1">
          <mxGeometry x="426" y="550" width="340" height="70" as="geometry" />
        </mxCell>
        <mxCell id="VAHf5R7y1Ry_OR95GSxl-20" value="[Carte_valide]" style="text;html=1;strokeColor=none;fillColor=none;align=center;verticalAlign=middle;whiteSpace=wrap;rounded=0;" vertex="1" parent="1">
          <mxGeometry x="376" y="660" width="180" height="20" as="geometry" />
        </mxCell>
        <mxCell id="VAHf5R7y1Ry_OR95GSxl-21" value="[Not Carte_valide]" style="text;html=1;strokeColor=none;fillColor=none;align=center;verticalAlign=middle;whiteSpace=wrap;rounded=0;" vertex="1" parent="1">
          <mxGeometry x="156" y="555" width="180" height="20" as="geometry" />
        </mxCell>
        <mxCell id="VAHf5R7y1Ry_OR95GSxl-22" value="Tirer_Carte()" style="html=1;verticalAlign=bottom;endArrow=block;entryX=0;entryY=0;" edge="1" parent="1" source="VAHf5R7y1Ry_OR95GSxl-4" target="VAHf5R7y1Ry_OR95GSxl-7">
          <mxGeometry relative="1" as="geometry">
            <mxPoint x="441" y="810" as="sourcePoint" />
          </mxGeometry>
        </mxCell>
        <mxCell id="VAHf5R7y1Ry_OR95GSxl-23" value="return" style="html=1;verticalAlign=bottom;endArrow=open;dashed=1;endSize=8;exitX=0;exitY=0.95;" edge="1" parent="1" source="VAHf5R7y1Ry_OR95GSxl-7" target="VAHf5R7y1Ry_OR95GSxl-4">
          <mxGeometry relative="1" as="geometry">
            <mxPoint x="441" y="886" as="targetPoint" />
          </mxGeometry>
        </mxCell>
        <mxCell id="VAHf5R7y1Ry_OR95GSxl-24" value="" style="points=[];perimeter=orthogonalPerimeter;rounded=0;shadow=0;strokeWidth=1;" vertex="1" parent="1">
          <mxGeometry x="741" y="818" width="10" height="61" as="geometry" />
        </mxCell>
        <mxCell id="VAHf5R7y1Ry_OR95GSxl-25" value="Tas_tire(), Main_add(Carte)" style="verticalAlign=bottom;endArrow=block;shadow=0;strokeWidth=1;entryX=0.1;entryY=0;entryDx=0;entryDy=0;entryPerimeter=0;" edge="1" parent="1" target="VAHf5R7y1Ry_OR95GSxl-24">
          <mxGeometry relative="1" as="geometry">
            <mxPoint x="533" y="818" as="sourcePoint" />
            <mxPoint x="736" y="830" as="targetPoint" />
          </mxGeometry>
        </mxCell>
        <mxCell id="VAHf5R7y1Ry_OR95GSxl-26" value="return" style="verticalAlign=bottom;endArrow=open;dashed=1;endSize=8;exitX=0.1;exitY=0.975;shadow=0;strokeWidth=1;exitDx=0;exitDy=0;exitPerimeter=0;" edge="1" parent="1" source="VAHf5R7y1Ry_OR95GSxl-24">
          <mxGeometry relative="1" as="geometry">
            <mxPoint x="534" y="874" as="targetPoint" />
            <mxPoint x="696" y="860" as="sourcePoint" />
          </mxGeometry>
        </mxCell>
        <mxCell id="VAHf5R7y1Ry_OR95GSxl-27" value="Passer_Tour()" style="html=1;verticalAlign=bottom;endArrow=block;entryX=0;entryY=0;" edge="1" parent="1" source="VAHf5R7y1Ry_OR95GSxl-4" target="VAHf5R7y1Ry_OR95GSxl-8">
          <mxGeometry relative="1" as="geometry">
            <mxPoint x="441" y="920" as="sourcePoint" />
          </mxGeometry>
        </mxCell>
        <mxCell id="VAHf5R7y1Ry_OR95GSxl-28" value="return" style="html=1;verticalAlign=bottom;endArrow=open;dashed=1;endSize=8;exitX=0;exitY=0.95;" edge="1" parent="1" source="VAHf5R7y1Ry_OR95GSxl-8" target="VAHf5R7y1Ry_OR95GSxl-4">
          <mxGeometry relative="1" as="geometry">
            <mxPoint x="441" y="996" as="targetPoint" />
          </mxGeometry>
        </mxCell>
        <mxCell id="VAHf5R7y1Ry_OR95GSxl-29" value="[Not Tour_finished]" style="text;html=1;strokeColor=none;fillColor=none;align=center;verticalAlign=middle;whiteSpace=wrap;rounded=0;" vertex="1" parent="1">
          <mxGeometry x="136" y="500" width="180" height="20" as="geometry" />
        </mxCell>
        <mxCell id="VAHf5R7y1Ry_OR95GSxl-30" value="Fin_Tour()" style="html=1;verticalAlign=bottom;endArrow=block;entryX=0;entryY=0;" edge="1" parent="1" source="VAHf5R7y1Ry_OR95GSxl-5" target="VAHf5R7y1Ry_OR95GSxl-16">
          <mxGeometry relative="1" as="geometry">
            <mxPoint x="671" y="1070" as="sourcePoint" />
          </mxGeometry>
        </mxCell>
        <mxCell id="VAHf5R7y1Ry_OR95GSxl-31" value="return" style="html=1;verticalAlign=bottom;endArrow=open;dashed=1;endSize=8;exitX=0;exitY=0.95;" edge="1" parent="1" source="VAHf5R7y1Ry_OR95GSxl-16" target="VAHf5R7y1Ry_OR95GSxl-5">
          <mxGeometry relative="1" as="geometry">
            <mxPoint x="671" y="1146" as="targetPoint" />
          </mxGeometry>
        </mxCell>
        <mxCell id="VAHf5R7y1Ry_OR95GSxl-32" value="Loop" style="shape=umlFrame;whiteSpace=wrap;html=1;width=110;height=30;" vertex="1" parent="1">
          <mxGeometry x="166" y="1040" width="680" height="130" as="geometry" />
        </mxCell>
        <mxCell id="VAHf5R7y1Ry_OR95GSxl-33" value="[Tour_finished]" style="text;html=1;strokeColor=none;fillColor=none;align=center;verticalAlign=middle;whiteSpace=wrap;rounded=0;" vertex="1" parent="1">
          <mxGeometry x="126" y="1070" width="180" height="20" as="geometry" />
        </mxCell>
        <mxCell id="VAHf5R7y1Ry_OR95GSxl-34" value="" style="points=[];perimeter=orthogonalPerimeter;rounded=0;shadow=0;strokeWidth=1;" vertex="1" parent="1">
          <mxGeometry x="745.5" y="565" width="10" height="40" as="geometry" />
        </mxCell>
        <mxCell id="VAHf5R7y1Ry_OR95GSxl-35" value="VÃ©rif_carte(carte)" style="verticalAlign=bottom;endArrow=block;shadow=0;strokeWidth=1;entryX=0.05;entryY=0.05;entryDx=0;entryDy=0;entryPerimeter=0;" edge="1" parent="1" target="VAHf5R7y1Ry_OR95GSxl-34">
          <mxGeometry relative="1" as="geometry">
            <mxPoint x="531" y="567" as="sourcePoint" />
            <mxPoint x="736" y="567" as="targetPoint" />
          </mxGeometry>
        </mxCell>
        <mxCell id="VAHf5R7y1Ry_OR95GSxl-36" value="return" style="verticalAlign=bottom;endArrow=open;dashed=1;endSize=8;shadow=0;strokeWidth=1;" edge="1" parent="1">
          <mxGeometry relative="1" as="geometry">
            <mxPoint x="531" y="606" as="targetPoint" />
            <mxPoint x="744" y="606" as="sourcePoint" />
          </mxGeometry>
        </mxCell>
        <mxCell id="VAHf5R7y1Ry_OR95GSxl-37" value=":Api" style="rounded=0;whiteSpace=wrap;html=1;" vertex="1" parent="1">
          <mxGeometry x="943" y="420" width="122" height="40" as="geometry" />
        </mxCell>
        <mxCell id="VAHf5R7y1Ry_OR95GSxl-38" value="" style="endArrow=none;dashed=1;html=1;dashPattern=1 3;strokeWidth=2;entryX=0.5;entryY=1;entryDx=0;entryDy=0;" edge="1" parent="1" source="VAHf5R7y1Ry_OR95GSxl-39" target="VAHf5R7y1Ry_OR95GSxl-37">
          <mxGeometry width="50" height="50" relative="1" as="geometry">
            <mxPoint x="1010" y="1028" as="sourcePoint" />
            <mxPoint x="1000" y="464" as="targetPoint" />
          </mxGeometry>
        </mxCell>
        <mxCell id="VAHf5R7y1Ry_OR95GSxl-39" value="" style="points=[];perimeter=orthogonalPerimeter;rounded=0;shadow=0;strokeWidth=1;" vertex="1" parent="1">
          <mxGeometry x="999" y="650" width="10" height="40" as="geometry" />
        </mxCell>
        <mxCell id="VAHf5R7y1Ry_OR95GSxl-40" value="" style="endArrow=none;dashed=1;html=1;dashPattern=1 3;strokeWidth=2;entryX=0.5;entryY=1;entryDx=0;entryDy=0;exitX=0.916;exitY=1.012;exitDx=0;exitDy=0;exitPerimeter=0;" edge="1" parent="1" source="VAHf5R7y1Ry_OR95GSxl-1" target="VAHf5R7y1Ry_OR95GSxl-39">
          <mxGeometry width="50" height="50" relative="1" as="geometry">
            <mxPoint x="1004" y="871" as="sourcePoint" />
            <mxPoint x="1004" y="460" as="targetPoint" />
          </mxGeometry>
        </mxCell>
        <mxCell id="VAHf5R7y1Ry_OR95GSxl-41" value="Api.Plis_add(carte)" style="verticalAlign=bottom;endArrow=block;shadow=0;strokeWidth=1;entryX=0.1;entryY=0;entryDx=0;entryDy=0;entryPerimeter=0;exitX=0.999;exitY=0.281;exitDx=0;exitDy=0;exitPerimeter=0;" edge="1" parent="1" source="VAHf5R7y1Ry_OR95GSxl-3">
          <mxGeometry relative="1" as="geometry">
            <mxPoint x="778.5" y="651" as="sourcePoint" />
            <mxPoint x="999" y="650" as="targetPoint" />
          </mxGeometry>
        </mxCell>
        <mxCell id="VAHf5R7y1Ry_OR95GSxl-42" value="return" style="verticalAlign=bottom;endArrow=open;dashed=1;endSize=8;exitX=0.1;exitY=0.975;shadow=0;strokeWidth=1;exitDx=0;exitDy=0;exitPerimeter=0;entryX=1.001;entryY=0.852;entryDx=0;entryDy=0;entryPerimeter=0;" edge="1" parent="1" target="VAHf5R7y1Ry_OR95GSxl-3">
          <mxGeometry relative="1" as="geometry">
            <mxPoint x="775.3599999999999" y="690.4000000000001" as="targetPoint" />
            <mxPoint x="999" y="689.9999999999999" as="sourcePoint" />
          </mxGeometry>
        </mxCell>
        <mxCell id="VAHf5R7y1Ry_OR95GSxl-43" value="Loop" style="shape=umlFrame;whiteSpace=wrap;html=1;width=110;height=30;" vertex="1" parent="1">
          <mxGeometry x="140" y="1271" width="915" height="560" as="geometry" />
        </mxCell>
        <mxCell id="VAHf5R7y1Ry_OR95GSxl-44" value="Loop" style="shape=umlFrame;whiteSpace=wrap;html=1;width=110;height=30;" vertex="1" parent="1">
          <mxGeometry x="160" y="1321" width="861" height="240" as="geometry" />
        </mxCell>
        <mxCell id="VAHf5R7y1Ry_OR95GSxl-45" value="opt" style="shape=umlFrame;whiteSpace=wrap;html=1;" vertex="1" parent="1">
          <mxGeometry x="400" y="1431" width="340" height="70" as="geometry" />
        </mxCell>
        <mxCell id="VAHf5R7y1Ry_OR95GSxl-46" value=":Joueur" style="shape=umlLifeline;perimeter=lifelinePerimeter;container=1;collapsible=0;recursiveResize=0;rounded=0;shadow=0;strokeWidth=1;" vertex="1" parent="1">
          <mxGeometry x="240" y="1221" width="100" height="660" as="geometry" />
        </mxCell>
        <mxCell id="VAHf5R7y1Ry_OR95GSxl-47" value=":SystÃ¨me (applicationÂ &#xa;mÃ©tier)" style="shape=umlLifeline;perimeter=lifelinePerimeter;container=1;collapsible=0;recursiveResize=0;rounded=0;shadow=0;strokeWidth=1;" vertex="1" parent="1">
          <mxGeometry x="437" y="1221" width="122" height="760" as="geometry" />
        </mxCell>
        <mxCell id="VAHf5R7y1Ry_OR95GSxl-48" value="" style="points=[];perimeter=orthogonalPerimeter;rounded=0;shadow=0;strokeWidth=1;" vertex="1" parent="VAHf5R7y1Ry_OR95GSxl-47">
          <mxGeometry x="56" y="114" width="10" height="200" as="geometry" />
        </mxCell>
        <mxCell id="VAHf5R7y1Ry_OR95GSxl-49" value="" style="html=1;points=[];perimeter=orthogonalPerimeter;" vertex="1" parent="VAHf5R7y1Ry_OR95GSxl-47">
          <mxGeometry x="56" y="390" width="10" height="80" as="geometry" />
        </mxCell>
        <mxCell id="VAHf5R7y1Ry_OR95GSxl-50" value="" style="html=1;points=[];perimeter=orthogonalPerimeter;" vertex="1" parent="VAHf5R7y1Ry_OR95GSxl-47">
          <mxGeometry x="56" y="500" width="10" height="80" as="geometry" />
        </mxCell>
        <mxCell id="VAHf5R7y1Ry_OR95GSxl-51" value="return" style="verticalAlign=bottom;endArrow=open;dashed=1;endSize=8;exitX=0;exitY=0.95;shadow=0;strokeWidth=1;" edge="1" parent="1" source="VAHf5R7y1Ry_OR95GSxl-48">
          <mxGeometry relative="1" as="geometry">
            <mxPoint x="289" y="1525" as="targetPoint" />
          </mxGeometry>
        </mxCell>
        <mxCell id="VAHf5R7y1Ry_OR95GSxl-52" value="Poser_Carte()" style="verticalAlign=bottom;endArrow=block;entryX=0;entryY=0;shadow=0;strokeWidth=1;exitX=0.502;exitY=0.171;exitDx=0;exitDy=0;exitPerimeter=0;" edge="1" parent="1" source="VAHf5R7y1Ry_OR95GSxl-46" target="VAHf5R7y1Ry_OR95GSxl-48">
          <mxGeometry relative="1" as="geometry">
            <mxPoint x="295" y="1341.0000000000005" as="sourcePoint" />
          </mxGeometry>
        </mxCell>
        <mxCell id="VAHf5R7y1Ry_OR95GSxl-53" value=":Jeu (interface)" style="shape=umlLifeline;perimeter=lifelinePerimeter;container=1;collapsible=0;recursiveResize=0;rounded=0;shadow=0;strokeWidth=1;" vertex="1" parent="1">
          <mxGeometry x="663" y="1221" width="123" height="760" as="geometry" />
        </mxCell>
        <mxCell id="VAHf5R7y1Ry_OR95GSxl-54" value="" style="points=[];perimeter=orthogonalPerimeter;rounded=0;shadow=0;strokeWidth=1;" vertex="1" parent="VAHf5R7y1Ry_OR95GSxl-53">
          <mxGeometry x="56.5" y="229" width="10" height="40" as="geometry" />
        </mxCell>
        <mxCell id="VAHf5R7y1Ry_OR95GSxl-55" value="" style="points=[];perimeter=orthogonalPerimeter;rounded=0;shadow=0;strokeWidth=1;" vertex="1" parent="VAHf5R7y1Ry_OR95GSxl-53">
          <mxGeometry x="45" y="520" width="10" height="40" as="geometry" />
        </mxCell>
        <mxCell id="VAHf5R7y1Ry_OR95GSxl-56" value="Joueur_Suivant()" style="verticalAlign=bottom;endArrow=block;shadow=0;strokeWidth=1;entryX=0.1;entryY=0;entryDx=0;entryDy=0;entryPerimeter=0;" edge="1" parent="VAHf5R7y1Ry_OR95GSxl-53" target="VAHf5R7y1Ry_OR95GSxl-55">
          <mxGeometry relative="1" as="geometry">
            <mxPoint x="-162" y="520" as="sourcePoint" />
            <mxPoint x="40" y="520" as="targetPoint" />
          </mxGeometry>
        </mxCell>
        <mxCell id="VAHf5R7y1Ry_OR95GSxl-57" value="return" style="verticalAlign=bottom;endArrow=open;dashed=1;endSize=8;exitX=0.1;exitY=0.975;shadow=0;strokeWidth=1;exitDx=0;exitDy=0;exitPerimeter=0;" edge="1" parent="VAHf5R7y1Ry_OR95GSxl-53" source="VAHf5R7y1Ry_OR95GSxl-55">
          <mxGeometry relative="1" as="geometry">
            <mxPoint x="-170" y="559" as="targetPoint" />
            <mxPoint y="550" as="sourcePoint" />
          </mxGeometry>
        </mxCell>
        <mxCell id="VAHf5R7y1Ry_OR95GSxl-58" value="" style="html=1;points=[];perimeter=orthogonalPerimeter;" vertex="1" parent="VAHf5R7y1Ry_OR95GSxl-53">
          <mxGeometry x="45" y="650" width="10" height="80" as="geometry" />
        </mxCell>
        <mxCell id="VAHf5R7y1Ry_OR95GSxl-59" value="Plis_add(carte)" style="verticalAlign=bottom;endArrow=block;shadow=0;strokeWidth=1;entryX=0.1;entryY=0;entryDx=0;entryDy=0;entryPerimeter=0;" edge="1" parent="1" target="VAHf5R7y1Ry_OR95GSxl-54">
          <mxGeometry relative="1" as="geometry">
            <mxPoint x="505" y="1450" as="sourcePoint" />
            <mxPoint x="710" y="1451" as="targetPoint" />
          </mxGeometry>
        </mxCell>
        <mxCell id="VAHf5R7y1Ry_OR95GSxl-60" value="return" style="verticalAlign=bottom;endArrow=open;dashed=1;endSize=8;exitX=0.1;exitY=0.975;shadow=0;strokeWidth=1;exitDx=0;exitDy=0;exitPerimeter=0;" edge="1" parent="1" source="VAHf5R7y1Ry_OR95GSxl-54">
          <mxGeometry relative="1" as="geometry">
            <mxPoint x="503" y="1489" as="targetPoint" />
            <mxPoint x="670" y="1481" as="sourcePoint" />
          </mxGeometry>
        </mxCell>
        <mxCell id="VAHf5R7y1Ry_OR95GSxl-61" value="ref" style="shape=umlFrame;whiteSpace=wrap;html=1;" vertex="1" parent="1">
          <mxGeometry x="400" y="1351" width="340" height="70" as="geometry" />
        </mxCell>
        <mxCell id="VAHf5R7y1Ry_OR95GSxl-62" value="[Carte_valide]" style="text;html=1;strokeColor=none;fillColor=none;align=center;verticalAlign=middle;whiteSpace=wrap;rounded=0;" vertex="1" parent="1">
          <mxGeometry x="350" y="1461" width="180" height="20" as="geometry" />
        </mxCell>
        <mxCell id="VAHf5R7y1Ry_OR95GSxl-63" value="[Not Carte_valide]" style="text;html=1;strokeColor=none;fillColor=none;align=center;verticalAlign=middle;whiteSpace=wrap;rounded=0;" vertex="1" parent="1">
          <mxGeometry x="130" y="1356" width="180" height="20" as="geometry" />
        </mxCell>
        <mxCell id="VAHf5R7y1Ry_OR95GSxl-64" value="Tirer_Carte()" style="html=1;verticalAlign=bottom;endArrow=block;entryX=0;entryY=0;" edge="1" parent="1" source="VAHf5R7y1Ry_OR95GSxl-46" target="VAHf5R7y1Ry_OR95GSxl-49">
          <mxGeometry relative="1" as="geometry">
            <mxPoint x="415" y="1611" as="sourcePoint" />
          </mxGeometry>
        </mxCell>
        <mxCell id="VAHf5R7y1Ry_OR95GSxl-65" value="return" style="html=1;verticalAlign=bottom;endArrow=open;dashed=1;endSize=8;exitX=0;exitY=0.95;" edge="1" parent="1" source="VAHf5R7y1Ry_OR95GSxl-49" target="VAHf5R7y1Ry_OR95GSxl-46">
          <mxGeometry relative="1" as="geometry">
            <mxPoint x="415" y="1687" as="targetPoint" />
          </mxGeometry>
        </mxCell>
        <mxCell id="VAHf5R7y1Ry_OR95GSxl-66" value="" style="points=[];perimeter=orthogonalPerimeter;rounded=0;shadow=0;strokeWidth=1;" vertex="1" parent="1">
          <mxGeometry x="715" y="1619" width="10" height="61" as="geometry" />
        </mxCell>
        <mxCell id="VAHf5R7y1Ry_OR95GSxl-67" value="Tas_tire(), Main_add(Carte)" style="verticalAlign=bottom;endArrow=block;shadow=0;strokeWidth=1;entryX=0.1;entryY=0;entryDx=0;entryDy=0;entryPerimeter=0;" edge="1" parent="1" target="VAHf5R7y1Ry_OR95GSxl-66">
          <mxGeometry relative="1" as="geometry">
            <mxPoint x="507" y="1619" as="sourcePoint" />
            <mxPoint x="710" y="1631" as="targetPoint" />
          </mxGeometry>
        </mxCell>
        <mxCell id="VAHf5R7y1Ry_OR95GSxl-68" value="return" style="verticalAlign=bottom;endArrow=open;dashed=1;endSize=8;exitX=0.1;exitY=0.975;shadow=0;strokeWidth=1;exitDx=0;exitDy=0;exitPerimeter=0;" edge="1" parent="1" source="VAHf5R7y1Ry_OR95GSxl-66">
          <mxGeometry relative="1" as="geometry">
            <mxPoint x="508" y="1675" as="targetPoint" />
            <mxPoint x="670" y="1661" as="sourcePoint" />
          </mxGeometry>
        </mxCell>
        <mxCell id="VAHf5R7y1Ry_OR95GSxl-69" value="Passer_Tour()" style="html=1;verticalAlign=bottom;endArrow=block;entryX=0;entryY=0;" edge="1" parent="1" source="VAHf5R7y1Ry_OR95GSxl-46" target="VAHf5R7y1Ry_OR95GSxl-50">
          <mxGeometry relative="1" as="geometry">
            <mxPoint x="415" y="1721" as="sourcePoint" />
          </mxGeometry>
        </mxCell>
        <mxCell id="VAHf5R7y1Ry_OR95GSxl-70" value="return" style="html=1;verticalAlign=bottom;endArrow=open;dashed=1;endSize=8;exitX=0;exitY=0.95;" edge="1" parent="1" source="VAHf5R7y1Ry_OR95GSxl-50" target="VAHf5R7y1Ry_OR95GSxl-46">
          <mxGeometry relative="1" as="geometry">
            <mxPoint x="415" y="1797" as="targetPoint" />
          </mxGeometry>
        </mxCell>
        <mxCell id="VAHf5R7y1Ry_OR95GSxl-71" value="[Not Tour_finished]" style="text;html=1;strokeColor=none;fillColor=none;align=center;verticalAlign=middle;whiteSpace=wrap;rounded=0;" vertex="1" parent="1">
          <mxGeometry x="110" y="1301" width="180" height="20" as="geometry" />
        </mxCell>
        <mxCell id="VAHf5R7y1Ry_OR95GSxl-72" value="Fin_Tour()" style="html=1;verticalAlign=bottom;endArrow=block;entryX=0;entryY=0;" edge="1" parent="1" source="VAHf5R7y1Ry_OR95GSxl-47" target="VAHf5R7y1Ry_OR95GSxl-58">
          <mxGeometry relative="1" as="geometry">
            <mxPoint x="645" y="1871" as="sourcePoint" />
          </mxGeometry>
        </mxCell>
        <mxCell id="VAHf5R7y1Ry_OR95GSxl-73" value="return" style="html=1;verticalAlign=bottom;endArrow=open;dashed=1;endSize=8;exitX=0;exitY=0.95;" edge="1" parent="1" source="VAHf5R7y1Ry_OR95GSxl-58" target="VAHf5R7y1Ry_OR95GSxl-47">
          <mxGeometry relative="1" as="geometry">
            <mxPoint x="645" y="1947" as="targetPoint" />
          </mxGeometry>
        </mxCell>
        <mxCell id="VAHf5R7y1Ry_OR95GSxl-74" value="Loop" style="shape=umlFrame;whiteSpace=wrap;html=1;width=110;height=30;" vertex="1" parent="1">
          <mxGeometry x="140" y="1841" width="680" height="130" as="geometry" />
        </mxCell>
        <mxCell id="VAHf5R7y1Ry_OR95GSxl-75" value="[Tour_finished]" style="text;html=1;strokeColor=none;fillColor=none;align=center;verticalAlign=middle;whiteSpace=wrap;rounded=0;" vertex="1" parent="1">
          <mxGeometry x="100" y="1871" width="180" height="20" as="geometry" />
        </mxCell>
        <mxCell id="VAHf5R7y1Ry_OR95GSxl-76" value="" style="points=[];perimeter=orthogonalPerimeter;rounded=0;shadow=0;strokeWidth=1;" vertex="1" parent="1">
          <mxGeometry x="719.5" y="1366" width="10" height="40" as="geometry" />
        </mxCell>
        <mxCell id="VAHf5R7y1Ry_OR95GSxl-77" value="VÃ©rif_carte(carte)" style="verticalAlign=bottom;endArrow=block;shadow=0;strokeWidth=1;entryX=0.05;entryY=0.05;entryDx=0;entryDy=0;entryPerimeter=0;" edge="1" parent="1" target="VAHf5R7y1Ry_OR95GSxl-76">
          <mxGeometry relative="1" as="geometry">
            <mxPoint x="505" y="1368" as="sourcePoint" />
            <mxPoint x="710" y="1368" as="targetPoint" />
          </mxGeometry>
        </mxCell>
        <mxCell id="VAHf5R7y1Ry_OR95GSxl-78" value="return" style="verticalAlign=bottom;endArrow=open;dashed=1;endSize=8;shadow=0;strokeWidth=1;" edge="1" parent="1">
          <mxGeometry relative="1" as="geometry">
            <mxPoint x="505" y="1407" as="targetPoint" />
            <mxPoint x="718" y="1407" as="sourcePoint" />
          </mxGeometry>
        </mxCell>
        <mxCell id="VAHf5R7y1Ry_OR95GSxl-79" value=":Api" style="rounded=0;whiteSpace=wrap;html=1;" vertex="1" parent="1">
          <mxGeometry x="917" y="1221" width="122" height="40" as="geometry" />
        </mxCell>
        <mxCell id="VAHf5R7y1Ry_OR95GSxl-80" value="" style="endArrow=none;dashed=1;html=1;dashPattern=1 3;strokeWidth=2;entryX=0.5;entryY=1;entryDx=0;entryDy=0;" edge="1" parent="1" source="VAHf5R7y1Ry_OR95GSxl-81" target="VAHf5R7y1Ry_OR95GSxl-79">
          <mxGeometry width="50" height="50" relative="1" as="geometry">
            <mxPoint x="984" y="1829" as="sourcePoint" />
            <mxPoint x="974" y="1265" as="targetPoint" />
          </mxGeometry>
        </mxCell>
        <mxCell id="VAHf5R7y1Ry_OR95GSxl-81" value="" style="points=[];perimeter=orthogonalPerimeter;rounded=0;shadow=0;strokeWidth=1;" vertex="1" parent="1">
          <mxGeometry x="973" y="1451" width="10" height="40" as="geometry" />
        </mxCell>
        <mxCell id="VAHf5R7y1Ry_OR95GSxl-82" value="" style="endArrow=none;dashed=1;html=1;dashPattern=1 3;strokeWidth=2;entryX=0.5;entryY=1;entryDx=0;entryDy=0;exitX=0.916;exitY=1.012;exitDx=0;exitDy=0;exitPerimeter=0;" edge="1" parent="1" source="VAHf5R7y1Ry_OR95GSxl-43" target="VAHf5R7y1Ry_OR95GSxl-81">
          <mxGeometry width="50" height="50" relative="1" as="geometry">
            <mxPoint x="978" y="1672" as="sourcePoint" />
            <mxPoint x="978" y="1261" as="targetPoint" />
          </mxGeometry>
        </mxCell>
        <mxCell id="VAHf5R7y1Ry_OR95GSxl-83" value="Api.Plis_add(carte)" style="verticalAlign=bottom;endArrow=block;shadow=0;strokeWidth=1;entryX=0.1;entryY=0;entryDx=0;entryDy=0;entryPerimeter=0;exitX=0.999;exitY=0.281;exitDx=0;exitDy=0;exitPerimeter=0;" edge="1" parent="1" source="VAHf5R7y1Ry_OR95GSxl-45">
          <mxGeometry relative="1" as="geometry">
            <mxPoint x="752.5" y="1452" as="sourcePoint" />
            <mxPoint x="973" y="1451" as="targetPoint" />
          </mxGeometry>
        </mxCell>
        <mxCell id="VAHf5R7y1Ry_OR95GSxl-84" value="return" style="verticalAlign=bottom;endArrow=open;dashed=1;endSize=8;exitX=0.1;exitY=0.975;shadow=0;strokeWidth=1;exitDx=0;exitDy=0;exitPerimeter=0;entryX=1.001;entryY=0.852;entryDx=0;entryDy=0;entryPerimeter=0;" edge="1" parent="1" target="VAHf5R7y1Ry_OR95GSxl-45">
          <mxGeometry relative="1" as="geometry">
            <mxPoint x="749.3599999999999" y="1491.4" as="targetPoint" />
            <mxPoint x="973" y="1491" as="sourcePoint" />
          </mxGeometry>
        </mxCell>
      </root>
    </mxGraphModel>
  </diagram>
</mxfile>
